<svg xmlns="http://www.w3.org/2000/svg" xmlns:xlink="http://www.w3.org/1999/xlink" width="500" zoomAndPan="magnify" viewBox="0 0 375 374.999991" height="500" preserveAspectRatio="xMidYMid meet" version="1.0"><defs><g/><clipPath id="27d1856723"><path d="M 71.746094 43.523438 L 246 43.523438 L 246 279 L 71.746094 279 Z M 71.746094 43.523438 " clip-rule="nonzero"/></clipPath><clipPath id="fb50bb7a90"><path d="M 194 157 L 303.496094 157 L 303.496094 337.523438 L 194 337.523438 Z M 194 157 " clip-rule="nonzero"/></clipPath></defs><rect x="-37.5" width="450" fill="#ffffff" y="-37.499999" height="449.999989" fill-opacity="1"/><rect x="-37.5" width="450" fill="#ffffff" y="-37.499999" height="449.999989" fill-opacity="1"/><g clip-path="url(#27d1856723)"><path fill="#0a0414" d="M 131.78125 278.769531 L 74.300781 278.769531 C 72.894531 278.769531 71.753906 277.628906 71.753906 276.21875 L 71.753906 144.351562 C 71.753906 88.851562 120.699219 43.703125 180.859375 43.703125 L 242.878906 43.703125 C 244.285156 43.703125 245.425781 44.84375 245.425781 46.25 L 245.425781 98.878906 C 245.425781 100.285156 244.285156 101.429688 242.878906 101.429688 L 180.859375 101.429688 C 155.203125 101.429688 134.332031 120.683594 134.332031 144.351562 L 134.332031 276.21875 C 134.332031 277.628906 133.1875 278.769531 131.78125 278.769531 " fill-opacity="1" fill-rule="nonzero"/></g><g clip-path="url(#fb50bb7a90)"><path fill="#0a0414" d="M 194.136719 334.710938 L 194.136719 282.050781 C 194.136719 280.683594 195.21875 279.574219 196.585938 279.507812 C 221.109375 278.328125 240.667969 259.554688 240.667969 236.644531 L 240.667969 217.640625 C 240.667969 216.230469 239.523438 215.089844 238.117188 215.089844 L 196.6875 215.089844 C 195.28125 215.089844 194.136719 213.949219 194.136719 212.539062 L 194.136719 159.914062 C 194.136719 158.503906 195.28125 157.363281 196.6875 157.363281 L 300.695312 157.363281 C 302.101562 157.363281 303.246094 158.503906 303.246094 159.914062 L 303.246094 236.644531 C 303.246094 291.335938 255.710938 335.980469 196.746094 337.265625 C 195.316406 337.296875 194.136719 336.144531 194.136719 334.710938 " fill-opacity="1" fill-rule="nonzero"/></g><g fill="#ffffff" fill-opacity="1"><g transform="translate(89.732336, 33.989934)"><g><path d="M 12 0 L 8.03125 -7.515625 L 6.140625 -7.515625 L 6.140625 0 L 2.203125 0 L 2.203125 -19.671875 L 9.953125 -19.671875 C 11.128906 -19.671875 12.125 -19.425781 12.9375 -18.9375 C 13.757812 -18.457031 14.398438 -17.828125 14.859375 -17.046875 C 15.316406 -16.265625 15.597656 -15.421875 15.703125 -14.515625 C 15.816406 -13.609375 15.75 -12.71875 15.5 -11.84375 C 15.257812 -10.96875 14.835938 -10.195312 14.234375 -9.53125 C 13.640625 -8.863281 12.859375 -8.390625 11.890625 -8.109375 L 16.453125 0 Z M 6.140625 -11.34375 L 9.609375 -11.34375 C 10.140625 -11.34375 10.5625 -11.488281 10.875 -11.78125 C 11.195312 -12.070312 11.410156 -12.4375 11.515625 -12.875 C 11.628906 -13.3125 11.628906 -13.75 11.515625 -14.1875 C 11.410156 -14.632812 11.195312 -15.003906 10.875 -15.296875 C 10.5625 -15.585938 10.140625 -15.734375 9.609375 -15.734375 L 6.140625 -15.734375 Z M 6.140625 -11.34375 "/></g></g><g transform="translate(106.602138, 33.989934)"><g><path d="M 6.140625 0 L 2.203125 0 L 2.203125 -19.671875 L 6.140625 -19.671875 Z M 6.140625 0 "/></g></g><g transform="translate(114.968239, 33.989934)"><g><path d="M 14.71875 -15.109375 C 14.351562 -15.304688 13.910156 -15.492188 13.390625 -15.671875 C 12.867188 -15.859375 12.175781 -15.953125 11.3125 -15.953125 C 10.1875 -15.953125 9.226562 -15.738281 8.4375 -15.3125 C 7.65625 -14.882812 7.023438 -14.3125 6.546875 -13.59375 C 6.066406 -12.875 5.742188 -12.085938 5.578125 -11.234375 C 5.421875 -10.378906 5.421875 -9.523438 5.578125 -8.671875 C 5.742188 -7.828125 6.066406 -7.046875 6.546875 -6.328125 C 7.023438 -5.609375 7.65625 -5.035156 8.4375 -4.609375 C 9.226562 -4.179688 10.1875 -3.96875 11.3125 -3.96875 C 12.175781 -3.96875 12.929688 -4.066406 13.578125 -4.265625 C 14.234375 -4.460938 14.742188 -4.65625 15.109375 -4.84375 L 15.625 -0.765625 C 15.019531 -0.523438 14.320312 -0.328125 13.53125 -0.171875 C 12.75 -0.015625 12.007812 0.0625 11.3125 0.0625 C 9.644531 0.0625 8.1875 -0.21875 6.9375 -0.78125 C 5.6875 -1.34375 4.644531 -2.097656 3.8125 -3.046875 C 2.976562 -4.003906 2.351562 -5.070312 1.9375 -6.25 C 1.53125 -7.4375 1.328125 -8.660156 1.328125 -9.921875 C 1.328125 -11.191406 1.53125 -12.414062 1.9375 -13.59375 C 2.351562 -14.78125 2.976562 -15.851562 3.8125 -16.8125 C 4.644531 -17.769531 5.6875 -18.523438 6.9375 -19.078125 C 8.1875 -19.640625 9.644531 -19.921875 11.3125 -19.921875 C 12.738281 -19.921875 14.03125 -19.664062 15.1875 -19.15625 Z M 14.71875 -15.109375 "/></g></g></g><g fill="#ffffff" fill-opacity="1"><g transform="translate(131.535318, 33.989934)"><g><path d="M 0.4375 0 L 8.71875 -20.390625 L 9.140625 -20.390625 L 17.421875 0 L 12.984375 0 L 12.1875 -2.125 L 5.671875 -2.125 L 4.890625 0 Z M 7.09375 -5.8125 L 10.734375 -5.8125 L 8.9375 -10.921875 Z M 7.09375 -5.8125 "/></g></g></g><g fill="#ffffff" fill-opacity="1"><g transform="translate(149.50592, 33.989934)"><g><path d="M 12 0 L 8.03125 -7.515625 L 6.140625 -7.515625 L 6.140625 0 L 2.203125 0 L 2.203125 -19.671875 L 9.953125 -19.671875 C 11.128906 -19.671875 12.125 -19.425781 12.9375 -18.9375 C 13.757812 -18.457031 14.398438 -17.828125 14.859375 -17.046875 C 15.316406 -16.265625 15.597656 -15.421875 15.703125 -14.515625 C 15.816406 -13.609375 15.75 -12.71875 15.5 -11.84375 C 15.257812 -10.96875 14.835938 -10.195312 14.234375 -9.53125 C 13.640625 -8.863281 12.859375 -8.390625 11.890625 -8.109375 L 16.453125 0 Z M 6.140625 -11.34375 L 9.609375 -11.34375 C 10.140625 -11.34375 10.5625 -11.488281 10.875 -11.78125 C 11.195312 -12.070312 11.410156 -12.4375 11.515625 -12.875 C 11.628906 -13.3125 11.628906 -13.75 11.515625 -14.1875 C 11.410156 -14.632812 11.195312 -15.003906 10.875 -15.296875 C 10.5625 -15.585938 10.140625 -15.734375 9.609375 -15.734375 L 6.140625 -15.734375 Z M 6.140625 -11.34375 "/></g></g><g transform="translate(166.375722, 33.989934)"><g><path d="M 8.0625 -19.671875 C 9.695312 -19.671875 11.128906 -19.394531 12.359375 -18.84375 C 13.585938 -18.289062 14.609375 -17.546875 15.421875 -16.609375 C 16.234375 -15.679688 16.847656 -14.628906 17.265625 -13.453125 C 17.679688 -12.273438 17.890625 -11.066406 17.890625 -9.828125 C 17.890625 -8.597656 17.679688 -7.394531 17.265625 -6.21875 C 16.847656 -5.039062 16.234375 -3.984375 15.421875 -3.046875 C 14.609375 -2.117188 13.585938 -1.378906 12.359375 -0.828125 C 11.128906 -0.273438 9.695312 0 8.0625 0 L 2.203125 0 L 2.203125 -19.671875 Z M 8.0625 -15.734375 L 6.140625 -15.734375 L 6.140625 -3.9375 L 8.0625 -3.9375 C 9.164062 -3.9375 10.101562 -4.144531 10.875 -4.5625 C 11.65625 -4.988281 12.28125 -5.550781 12.75 -6.25 C 13.21875 -6.957031 13.53125 -7.734375 13.6875 -8.578125 C 13.84375 -9.421875 13.84375 -10.257812 13.6875 -11.09375 C 13.53125 -11.9375 13.21875 -12.707031 12.75 -13.40625 C 12.28125 -14.113281 11.65625 -14.675781 10.875 -15.09375 C 10.101562 -15.519531 9.164062 -15.734375 8.0625 -15.734375 Z M 8.0625 -15.734375 "/></g></g><g transform="translate(185.74985, 33.989934)"><g><path d="M 11.671875 0.28125 C 9.984375 0.28125 8.5 -0.00390625 7.21875 -0.578125 C 5.945312 -1.148438 4.890625 -1.914062 4.046875 -2.875 C 3.203125 -3.832031 2.566406 -4.914062 2.140625 -6.125 C 1.722656 -7.34375 1.515625 -8.585938 1.515625 -9.859375 C 1.515625 -11.140625 1.722656 -12.382812 2.140625 -13.59375 C 2.566406 -14.800781 3.203125 -15.882812 4.046875 -16.84375 C 4.890625 -17.8125 5.945312 -18.578125 7.21875 -19.140625 C 8.5 -19.710938 9.984375 -20 11.671875 -20 C 13.359375 -20 14.835938 -19.710938 16.109375 -19.140625 C 17.378906 -18.578125 18.4375 -17.8125 19.28125 -16.84375 C 20.125 -15.882812 20.753906 -14.800781 21.171875 -13.59375 C 21.597656 -12.382812 21.8125 -11.140625 21.8125 -9.859375 C 21.8125 -8.585938 21.597656 -7.34375 21.171875 -6.125 C 20.753906 -4.914062 20.125 -3.832031 19.28125 -2.875 C 18.4375 -1.914062 17.378906 -1.148438 16.109375 -0.578125 C 14.835938 -0.00390625 13.359375 0.28125 11.671875 0.28125 Z M 11.671875 -3.796875 C 12.785156 -3.796875 13.742188 -4.015625 14.546875 -4.453125 C 15.359375 -4.898438 16.003906 -5.484375 16.484375 -6.203125 C 16.960938 -6.929688 17.28125 -7.722656 17.4375 -8.578125 C 17.601562 -9.441406 17.601562 -10.304688 17.4375 -11.171875 C 17.28125 -12.035156 16.960938 -12.828125 16.484375 -13.546875 C 16.003906 -14.273438 15.359375 -14.859375 14.546875 -15.296875 C 13.742188 -15.734375 12.785156 -15.953125 11.671875 -15.953125 C 10.546875 -15.953125 9.578125 -15.734375 8.765625 -15.296875 C 7.960938 -14.859375 7.320312 -14.273438 6.84375 -13.546875 C 6.375 -12.828125 6.054688 -12.035156 5.890625 -11.171875 C 5.722656 -10.304688 5.722656 -9.441406 5.890625 -8.578125 C 6.054688 -7.722656 6.375 -6.929688 6.84375 -6.203125 C 7.320312 -5.484375 7.960938 -4.898438 8.765625 -4.453125 C 9.578125 -4.015625 10.546875 -3.796875 11.671875 -3.796875 Z M 11.671875 -3.796875 "/></g></g></g><g fill="#ffffff" fill-opacity="1"><g transform="translate(209.059344, 33.989934)"><g/></g></g><g fill="#ffffff" fill-opacity="1"><g transform="translate(216.875039, 33.989934)"><g><path d="M 8.3125 0.40625 L 0.171875 -19.671875 L 4.703125 -19.671875 L 7.3125 -13.125 L 8.75 -9.046875 L 10.15625 -12.984375 L 12.796875 -19.671875 L 17.328125 -19.671875 L 9.1875 0.40625 Z M 8.3125 0.40625 "/></g></g></g><g fill="#ffffff" fill-opacity="1"><g transform="translate(234.405321, 33.989934)"><g><path d="M 12.375 0 L 2.203125 0 L 2.203125 -19.671875 L 12.046875 -19.671875 L 12.046875 -15.734375 L 6.140625 -15.734375 L 6.140625 -11.796875 L 11.3125 -11.796875 L 11.3125 -7.875 L 6.140625 -7.875 L 6.140625 -3.9375 L 12.375 -3.9375 Z M 12.375 0 "/></g></g></g><g fill="#ffffff" fill-opacity="1"><g transform="translate(248.275436, 33.989934)"><g><path d="M 2.203125 -19.671875 L 6.140625 -19.671875 L 6.140625 -3.9375 L 12.375 -3.9375 L 12.375 0 L 2.203125 0 Z M 2.203125 -19.671875 "/></g></g><g transform="translate(261.84283, 33.989934)"><g><path d="M 6.140625 0 L 2.203125 0 L 2.203125 -19.671875 L 6.140625 -19.671875 Z M 6.140625 0 "/></g></g></g><g fill="#ffffff" fill-opacity="1"><g transform="translate(270.20894, 33.989934)"><g><path d="M 9.390625 0 L 5.453125 0 L 5.453125 -15.734375 L 0.546875 -15.734375 L 0.546875 -19.640625 L 14.28125 -19.640625 L 14.28125 -15.734375 L 9.390625 -15.734375 Z M 9.390625 0 "/></g></g></g></svg>