<?xml version="1.0" encoding="utf-8"?>
<!-- Generator: Adobe Illustrator 27.5.0, SVG Export Plug-In . SVG Version: 6.00 Build 0)  -->
<svg version="1.1" xmlns="http://www.w3.org/2000/svg" xmlns:xlink="http://www.w3.org/1999/xlink" x="0px" y="0px"
	 viewBox="0 0 500 500" style="enable-background:new 0 0 500 500;" xml:space="preserve">
<g id="BACKGROUND">
	<rect style="fill:#383838;" width="500" height="500"/>
</g>
<g id="OBJECTS">
	<g>
		<g>
			<g>
				<circle style="fill:#6DD9B6;" cx="232.948" cy="216.603" r="3.651"/>
				<path style="fill:#6DD9B6;" d="M236.599,230.181c0,2.016-1.634,3.651-3.651,3.651c-2.016,0-3.651-1.634-3.651-3.651
					c0-2.016,1.634-3.651,3.651-3.651C234.965,226.53,236.599,228.165,236.599,230.181z"/>
			</g>
			<path style="fill:#6DD9B6;" d="M289.819,252.302h-79.636c-1.645,0-2.979-1.334-2.979-2.979v-51.862
				c0-1.645,1.334-2.979,2.979-2.979h79.636c1.645,0,2.979,1.334,2.979,2.979v51.862
				C292.798,250.968,291.464,252.302,289.819,252.302z M213.161,246.344h73.679V200.44h-73.679V246.344z"/>
			<path style="fill:#6DD9B6;" d="M254.43,239.44c-0.354,0-0.714-0.064-1.065-0.198c-1.536-0.589-2.305-2.311-1.716-3.848
				l10.011-26.136c0.589-1.536,2.311-2.305,3.848-1.716c1.536,0.588,2.305,2.311,1.716,3.848l-10.011,26.136
				C256.758,238.711,255.629,239.44,254.43,239.44z"/>
			<path style="fill:#6DD9B6;" d="M241.914,239.44c-0.354,0-0.714-0.064-1.065-0.198c-1.536-0.589-2.305-2.311-1.716-3.848
				l10.011-26.136c0.588-1.536,2.311-2.305,3.847-1.716c1.536,0.588,2.305,2.311,1.716,3.848l-10.011,26.136
				C244.242,238.711,243.112,239.44,241.914,239.44z"/>
		</g>
		
			<text transform="matrix(1 0 0 1 177.791 277.9762)" style="fill:#6DD9B6; font-family:'OpenSans-Extrabold'; font-size:21.6806px;">FRAMEWORK</text>
		
			<text transform="matrix(1 0 0 1 188.4409 288.3619)" style="fill:#6DD9B6; font-family:'OpenSans-Light'; font-size:7.3441px; letter-spacing:3;">WEB PROGRAMMING</text>
	</g>
	<g>
		<g>
			<path style="fill:#6DD9B6;" d="M282.756,112.143l-2.641-2.147l21.162-17.206c1.657-1.347,1.908-3.783,0.561-5.44
				c-1.348-1.657-3.783-1.908-5.44-0.561l-24.853,20.207c-0.903,0.734-1.427,1.836-1.427,3.001s0.524,2.266,1.427,3.001l6.332,5.148
				c0.717,0.583,1.58,0.867,2.437,0.867c1.124,0,2.239-0.488,3.003-1.428C284.665,115.926,284.413,113.49,282.756,112.143z"/>
			<path style="fill:#6DD9B6;" d="M336.046,106.995l-7.152-5.815c-1.657-1.347-4.093-1.096-5.44,0.561
				c-1.347,1.657-1.096,4.093,0.561,5.44l3.461,2.814l-21.162,17.206c-1.657,1.347-1.908,3.783-0.561,5.44
				c0.764,0.94,1.879,1.428,3.003,1.428c0.857,0,1.72-0.284,2.437-0.867l24.853-20.207c0.903-0.734,1.428-1.837,1.428-3.001
				S336.949,107.729,336.046,106.995z"/>
			<path style="fill:#6DD9B6;" d="M314.144,86.171c-1.963-0.842-4.237,0.067-5.079,2.029l-16.596,38.688
				c-0.842,1.963,0.067,4.236,2.029,5.079c0.497,0.213,1.014,0.314,1.523,0.314c1.5,0,2.927-0.878,3.556-2.344l16.596-38.688
				C317.015,89.287,316.107,87.013,314.144,86.171z"/>
		</g>
		
			<text transform="matrix(1 0 0 1 340.7145 114.571)" style="fill:#6DD9B6; font-family:'OpenSans-Extrabold'; font-size:31.1334px;">HTML</text>
		
			<text transform="matrix(1 0 0 1 336.3463 124.0554)" style="fill:#6DD9B6; font-family:'OpenSans-Light'; font-size:5.6643px; letter-spacing:2;">WEB PROGRAMMING</text>
	</g>
	<g>
		<g>
			<path style="fill:#6DD9B6;" d="M94.911,147.574c-0.356,0-0.718-0.055-1.075-0.172c-1.817-0.593-2.809-2.547-2.215-4.364
				l21.613-66.178c0.593-1.817,2.548-2.809,4.364-2.215c1.817,0.593,2.809,2.547,2.215,4.364l-21.613,66.178
				C97.724,146.647,96.368,147.574,94.911,147.574z"/>
			<g>
				<path style="fill:#6DD9B6;" d="M83.939,143.268c-0.551,0-1.111-0.132-1.631-0.411c-2.96-1.585-5.122-3.728-6.427-6.368
					c-1.646-3.329-1.834-7.263-0.56-11.694c0.736-2.56,1.286-6.046-0.274-8.116c-1.582-2.1-4.835-2.195-4.867-2.195
					c-1.911,0-3.461-1.549-3.461-3.461c0-1.903,1.535-3.447,3.435-3.461c0.116-0.003,3.352-0.111,4.914-2.224
					c1.533-2.074,0.983-5.542,0.252-8.087c-1.493-5.196-0.989-9.668,1.498-13.293c4.389-6.395,13.362-7.254,13.741-7.287
					c1.904-0.166,3.583,1.24,3.751,3.144c0.167,1.9-1.234,3.576-3.132,3.75c-1.704,0.164-6.578,1.26-8.667,4.331
					c-1.267,1.862-1.443,4.296-0.539,7.443c1.703,5.925,1.233,10.7-1.397,14.192c-0.42,0.558-0.873,1.052-1.346,1.492
					c0.474,0.439,0.927,0.934,1.346,1.492c2.63,3.492,3.1,8.267,1.397,14.192c-1.38,4.8-0.234,7.993,3.604,10.049
					c1.685,0.902,2.319,3,1.416,4.685C86.369,142.605,85.174,143.268,83.939,143.268z"/>
				<path style="fill:#6DD9B6;" d="M118.097,145.388c-1.774,0-3.285-1.357-3.443-3.157c-0.167-1.9,1.234-3.576,3.132-3.75
					c1.704-0.164,6.578-1.26,8.668-4.331c1.267-1.862,1.444-4.296,0.539-7.443c-1.703-5.925-1.233-10.7,1.397-14.192
					c0.42-0.558,0.873-1.052,1.347-1.492c-0.474-0.439-0.927-0.934-1.347-1.492c-2.63-3.492-3.1-8.267-1.397-14.192
					c0.733-2.551,1.332-6.252-1.919-8.933c-1.475-1.216-1.684-3.397-0.468-4.872c1.216-1.475,3.397-1.684,4.872-0.468
					c3.252,2.682,6.616,7.667,4.167,16.185c-0.732,2.545-1.282,6.013,0.252,8.087c1.561,2.112,4.795,2.221,4.914,2.224
					c1.899,0.014,3.435,1.558,3.435,3.461c0,1.902-1.535,3.446-3.434,3.461c-0.105,0.003-3.35,0.107-4.915,2.224
					c-1.533,2.074-0.983,5.542-0.252,8.087c1.493,5.196,0.989,9.668-1.498,13.292c-4.389,6.395-13.362,7.254-13.741,7.287
					C118.302,145.383,118.199,145.388,118.097,145.388z M138.785,114.484h0.002H138.785z"/>
			</g>
		</g>
		
			<text transform="matrix(1 0 0 1 140.856 101.2175)" style="fill:#6DD9B6; font-family:'OpenSans-Extrabold'; font-size:20.867px;">SOURCE</text>
		
			<text transform="matrix(1 0 0 1 147.8662 125.2849)" style="fill:#6DD9B6; font-family:'OpenSans-Extrabold'; font-size:28.2765px;">CODE</text>
		
			<text transform="matrix(1 0 0 1 138.8174 132.3811)" style="fill:#6DD9B6; font-family:'OpenSans-Light'; font-size:5.1272px; letter-spacing:2;">WEB PROGRAMMING</text>
	</g>
	<g>
		<g>
			<path style="fill:#6DD9B6;" d="M161.396,393.489c-1.757,0-3.262-1.333-3.44-3.118c-0.189-1.896,1.191-3.587,3.083-3.785
				c0.113-0.013,4.877-0.598,7.129-3.85c1.353-1.954,1.598-4.681,0.728-8.104c-1.584-6.232-1.016-11.154,1.688-14.632
				c0.286-0.367,0.585-0.705,0.893-1.014c-0.308-0.31-0.607-0.647-0.893-1.014c-2.704-3.477-3.272-8.4-1.688-14.632
				c0.874-3.441,0.622-6.178-0.749-8.135c-2.281-3.254-7.043-3.813-7.09-3.818c-1.902-0.189-3.29-1.885-3.101-3.787
				c0.189-1.902,1.885-3.289,3.787-3.101c0.323,0.032,7.952,0.855,12.072,6.733c2.581,3.682,3.183,8.329,1.79,13.812
				c-1.016,3.997-0.862,6.998,0.444,8.678c1.319,1.697,3.698,1.802,3.721,1.802c1.911,0,3.461,1.549,3.461,3.461
				c0,1.898-1.529,3.44-3.422,3.461c-0.118,0.005-2.487,0.12-3.792,1.845c-1.276,1.687-1.419,4.673-0.412,8.636
				c1.393,5.483,0.791,10.13-1.79,13.812c-4.12,5.878-11.749,6.7-12.072,6.733C161.627,393.483,161.511,393.489,161.396,393.489z
				 M179.77,362.447h0.002H179.77z"/>
			<path style="fill:#6DD9B6;" d="M113.115,393.489c-0.115,0-0.231-0.006-0.347-0.017c-0.323-0.032-7.952-0.855-12.072-6.733
				c-2.581-3.682-3.183-8.329-1.789-13.812c1.007-3.963,0.865-6.949-0.412-8.636c-1.305-1.725-3.674-1.84-3.792-1.845
				c-1.894-0.021-3.422-1.562-3.422-3.461c0-1.898,1.529-3.44,3.422-3.46c0.118-0.005,2.487-0.12,3.792-1.845
				c1.277-1.687,1.419-4.673,0.412-8.635c-1.394-5.483-0.791-10.13,1.789-13.812c4.12-5.878,11.749-6.7,12.072-6.733
				c1.902-0.189,3.597,1.199,3.787,3.101c0.189,1.896-1.19,3.587-3.083,3.785c-0.112,0.013-4.877,0.598-7.129,3.85
				c-1.353,1.954-1.598,4.681-0.728,8.104c1.584,6.232,1.016,11.154-1.688,14.632c-0.286,0.367-0.585,0.705-0.893,1.014
				c0.308,0.31,0.607,0.647,0.893,1.014c2.704,3.477,3.272,8.4,1.688,14.632c-0.87,3.423-0.625,6.15,0.728,8.104
				c2.268,3.275,7.082,3.845,7.13,3.85c1.902,0.189,3.281,1.884,3.091,3.786C116.386,392.157,114.872,393.489,113.115,393.489z
				 M94.74,362.447h0.002H94.74z"/>
			<path style="fill:#6DD9B6;" d="M159.935,348.502h-42.062c-1.911,0-3.461-1.549-3.461-3.461c0-1.911,1.549-3.461,3.461-3.461
				h42.062c1.911,0,3.461,1.549,3.461,3.461C163.396,346.953,161.846,348.502,159.935,348.502z"/>
			<path style="fill:#6DD9B6;" d="M126.94,363.59h-9.068c-1.911,0-3.461-1.549-3.461-3.461c0-1.911,1.549-3.461,3.461-3.461h9.068
				c1.911,0,3.461,1.549,3.461,3.461C130.401,362.04,128.852,363.59,126.94,363.59z"/>
			<path style="fill:#6DD9B6;" d="M159.935,363.59h-21.869c-1.911,0-3.461-1.549-3.461-3.461c0-1.911,1.549-3.461,3.461-3.461
				h21.869c1.911,0,3.461,1.549,3.461,3.461C163.396,362.04,161.846,363.59,159.935,363.59z"/>
			<path style="fill:#6DD9B6;" d="M139.437,378.678h-21.565c-1.911,0-3.461-1.549-3.461-3.461c0-1.911,1.549-3.461,3.461-3.461
				h21.565c1.911,0,3.461,1.549,3.461,3.461C142.898,377.128,141.348,378.678,139.437,378.678z"/>
		</g>
		
			<text transform="matrix(1 0 0 1 67.5934 422.1618)" style="fill:#6DD9B6; font-family:'OpenSans-Extrabold'; font-size:23.6498px;">HARD CODE</text>
		
			<text transform="matrix(1 0 0 1 69.4181 433.3327)" style="fill:#6DD9B6; font-family:'OpenSans-Light'; font-size:8.1552px; letter-spacing:4;">WEB PROGRAMMING</text>
	</g>
	<g>
		<g>
			<g>
				<path style="fill:#6DD9B6;" d="M360.745,385.551h-13.638c-1.911,0-3.461-1.549-3.461-3.461v-41.827
					c0-1.911,1.549-3.461,3.461-3.461h13.638c1.911,0,3.461,1.549,3.461,3.461c0,1.911-1.549,3.461-3.461,3.461h-10.178v34.906
					h10.178c1.911,0,3.461,1.549,3.461,3.461C364.206,384.001,362.656,385.551,360.745,385.551z"/>
				<path style="fill:#6DD9B6;" d="M387.808,385.551h-13.638c-1.911,0-3.461-1.549-3.461-3.461c0-1.911,1.549-3.461,3.461-3.461
					h10.178v-34.906h-10.178c-1.911,0-3.461-1.549-3.461-3.461c0-1.911,1.549-3.461,3.461-3.461h13.638
					c1.911,0,3.461,1.549,3.461,3.461v41.827C391.269,384.001,389.719,385.551,387.808,385.551z"/>
			</g>
			<g>
				<path style="fill:#6DD9B6;" d="M392.37,396.783c-1.757,0-3.262-1.333-3.44-3.118c-0.189-1.896,1.191-3.587,3.084-3.785
					c0.117-0.013,5.081-0.621,7.435-4.019c1.416-2.044,1.674-4.889,0.768-8.455c-1.625-6.396-1.046-11.444,1.723-15.004
					c0.316-0.407,0.648-0.777,0.991-1.115c-0.342-0.338-0.674-0.708-0.991-1.115c-2.769-3.56-3.348-8.608-1.723-15.004
					c0.906-3.566,0.648-6.41-0.768-8.455c-2.37-3.422-7.386-4.014-7.436-4.019c-1.902-0.189-3.281-1.884-3.092-3.786
					c0.189-1.902,1.894-3.289,3.796-3.1c0.331,0.033,8.156,0.877,12.378,6.901c2.644,3.772,3.26,8.537,1.83,14.163
					c-1.048,4.124-0.894,7.239,0.445,9.007c1.38,1.822,3.875,1.941,3.997,1.946c1.894,0.02,3.424,1.561,3.424,3.46
					c0,1.899-1.53,3.441-3.424,3.461c-0.123,0.005-2.617,0.124-3.997,1.946c-1.339,1.768-1.493,4.883-0.445,9.007
					c1.43,5.626,0.814,10.391-1.83,14.163c-4.222,6.024-12.047,6.868-12.378,6.901C392.601,396.777,392.485,396.783,392.37,396.783z
					 M411.331,364.748h0.002H411.331z"/>
				<path style="fill:#6DD9B6;" d="M342.544,396.783c-0.115,0-0.23-0.006-0.347-0.017c-0.331-0.033-8.156-0.877-12.379-6.901
					c-2.644-3.773-3.26-8.538-1.83-14.163c1.048-4.124,0.894-7.239-0.445-9.007c-1.38-1.822-3.875-1.941-3.997-1.946
					c-1.894-0.02-3.424-1.561-3.424-3.461c0-1.899,1.529-3.441,3.424-3.46c0.123-0.005,2.617-0.124,3.997-1.946
					c1.339-1.768,1.493-4.883,0.445-9.007c-1.43-5.626-0.814-10.391,1.83-14.163c4.223-6.025,12.047-6.868,12.379-6.901
					c1.902-0.19,3.597,1.199,3.787,3.101c0.189,1.896-1.191,3.587-3.084,3.785c-0.113,0.013-5.08,0.619-7.435,4.019
					c-1.416,2.044-1.674,4.889-0.768,8.455c1.626,6.396,1.046,11.444-1.723,15.004c-0.316,0.407-0.648,0.777-0.991,1.115
					c0.342,0.338,0.674,0.708,0.991,1.115c2.769,3.56,3.348,8.608,1.723,15.004c-0.911,3.583-0.645,6.439,0.79,8.486
					c2.382,3.398,7.347,3.981,7.396,3.986c1.902,0.189,3.29,1.885,3.101,3.787C345.806,395.45,344.301,396.783,342.544,396.783z
					 M323.583,364.748h0.002H323.583z"/>
			</g>
			<path style="fill:#6DD9B6;" d="M361.667,375.016c-0.956,0-1.907-0.393-2.591-1.165c-1.268-1.43-1.136-3.618,0.294-4.885
				l8.661-7.678l-8.661-7.678c-1.43-1.268-1.562-3.455-0.294-4.886c1.268-1.43,3.455-1.562,4.885-0.294l11.582,10.268
				c0.741,0.657,1.165,1.6,1.165,2.59c0,0.99-0.424,1.933-1.165,2.59l-11.582,10.268
				C363.303,374.728,362.483,375.016,361.667,375.016z"/>
		</g>
		
			<text transform="matrix(1 0 0 1 296.6032 422.4636)" style="fill:#6DD9B6; font-family:'OpenSans-Extrabold'; font-size:18.4558px;">ACTION SCRIPT</text>
		
			<text transform="matrix(1 0 0 1 297.6764 432.0241)" style="fill:#6DD9B6; font-family:'OpenSans-Light'; font-size:8.1552px; letter-spacing:4;">WEB PROGRAMMING</text>
	</g>
</g>
</svg>
